<?xml version="1.0" encoding="UTF-8" standalone="no"?>
<!DOCTYPE svg PUBLIC "-//W3C//DTD SVG 1.1//EN"
 "http://www.w3.org/Graphics/SVG/1.1/DTD/svg11.dtd">
<!-- Generated by graphviz version 2.38.0 (20140413.2041)
 -->
<!-- Title: g Pages: 1 -->
<svg width="315pt" height="859pt"
 viewBox="0.00 0.00 315.00 859.00" xmlns="http://www.w3.org/2000/svg" xmlns:xlink="http://www.w3.org/1999/xlink">
<g id="graph0" class="graph" transform="scale(1 1) rotate(0) translate(4 855)">
<title>g</title>
<polygon fill="white" stroke="none" points="-4,4 -4,-855 311,-855 311,4 -4,4"/>
<g id="clust1" class="cluster"><title>cluster_cdraft</title>
<polygon fill="none" stroke="black" points="36,-708 36,-843 184,-843 184,-708 36,-708"/>
<text text-anchor="middle" x="110" y="-827.8" font-family="Times New Roman,serif" font-size="14.00">view=admin submitter</text>
<text text-anchor="middle" x="110" y="-812.8" font-family="Times New Roman,serif" font-size="14.00">list=admin submitter</text>
<text text-anchor="middle" x="110" y="-797.8" font-family="Times New Roman,serif" font-size="14.00">edit=admin submitter</text>
<text text-anchor="middle" x="110" y="-782.8" font-family="Times New Roman,serif" font-size="14.00">delete=admin submitter</text>
<text text-anchor="middle" x="110" y="-767.8" font-family="Times New Roman,serif" font-size="14.00">transit=admin submitter</text>
</g>
<g id="clust7" class="cluster"><title>cluster_creview</title>
<polygon fill="none" stroke="black" points="125,-270 125,-390 295,-390 295,-270 125,-270"/>
<text text-anchor="middle" x="210" y="-374.8" font-family="Times New Roman,serif" font-size="14.00">view=admin editor reviewer</text>
<text text-anchor="middle" x="210" y="-359.8" font-family="Times New Roman,serif" font-size="14.00">list=admin editor reviewer</text>
<text text-anchor="middle" x="210" y="-344.8" font-family="Times New Roman,serif" font-size="14.00">edit=admin reviewer</text>
<text text-anchor="middle" x="210" y="-329.8" font-family="Times New Roman,serif" font-size="14.00">transit=admin reviewer</text>
</g>
<g id="clust11" class="cluster"><title>cluster_cpublish</title>
<polygon fill="none" stroke="black" points="136,-8 136,-113 283,-113 283,-8 136,-8"/>
<text text-anchor="middle" x="209.5" y="-97.8" font-family="Times New Roman,serif" font-size="14.00">view=admin public</text>
<text text-anchor="middle" x="209.5" y="-82.8" font-family="Times New Roman,serif" font-size="14.00">list=admin publisher</text>
<text text-anchor="middle" x="209.5" y="-67.8" font-family="Times New Roman,serif" font-size="14.00">transit=admin publisher</text>
</g>
<g id="clust9" class="cluster"><title>cluster_cavailable_for_publication</title>
<polygon fill="none" stroke="black" points="23,-139 23,-244 248,-244 248,-139 23,-139"/>
<text text-anchor="middle" x="135.5" y="-228.8" font-family="Times New Roman,serif" font-size="14.00">view=admin editor reviewer publisher</text>
<text text-anchor="middle" x="135.5" y="-213.8" font-family="Times New Roman,serif" font-size="14.00">list=admin editor reviewer publisher</text>
<text text-anchor="middle" x="135.5" y="-198.8" font-family="Times New Roman,serif" font-size="14.00">transit=admin publisher</text>
</g>
<g id="clust3" class="cluster"><title>cluster_ceditable</title>
<polygon fill="none" stroke="black" points="63,-547 63,-682 229,-682 229,-547 63,-547"/>
<text text-anchor="middle" x="146" y="-666.8" font-family="Times New Roman,serif" font-size="14.00">view=admin editor</text>
<text text-anchor="middle" x="146" y="-651.8" font-family="Times New Roman,serif" font-size="14.00">list=admin editor submitter</text>
<text text-anchor="middle" x="146" y="-636.8" font-family="Times New Roman,serif" font-size="14.00">delete=admin editor</text>
<text text-anchor="middle" x="146" y="-621.8" font-family="Times New Roman,serif" font-size="14.00">edit=admin editor</text>
<text text-anchor="middle" x="146" y="-606.8" font-family="Times New Roman,serif" font-size="14.00">transit=admin editor</text>
</g>
<g id="clust5" class="cluster"><title>cluster_cavailable_for_review</title>
<polygon fill="none" stroke="black" points="8,-416 8,-521 178,-521 178,-416 8,-416"/>
<text text-anchor="middle" x="93" y="-505.8" font-family="Times New Roman,serif" font-size="14.00">view=admin editor reviewer</text>
<text text-anchor="middle" x="93" y="-490.8" font-family="Times New Roman,serif" font-size="14.00">list=admin editor reviewer</text>
<text text-anchor="middle" x="93" y="-475.8" font-family="Times New Roman,serif" font-size="14.00">transit=admin reviewer</text>
</g>
<!-- draft -->
<g id="node1" class="node"><title>draft</title>
<ellipse fill="none" stroke="black" cx="88" cy="-734" rx="27" ry="18"/>
<text text-anchor="middle" x="88" y="-731.8" font-family="Arial" font-size="9.00" fill="#0000ff">1 Draft</text>
</g>
<!-- editable -->
<g id="node2" class="node"><title>editable</title>
<ellipse fill="none" stroke="black" cx="136" cy="-573" rx="33.4726" ry="18"/>
<text text-anchor="middle" x="136" y="-570.8" font-family="Arial" font-size="9.00" fill="#0000ff">2 Editable</text>
</g>
<!-- draft&#45;&gt;editable -->
<g id="edge1" class="edge"><title>draft&#45;&gt;editable</title>
<path fill="none" stroke="black" d="M69.1189,-720.934C59.354,-713.031 50.1956,-701.973 54,-690 65.6408,-653.366 93.502,-618.342 113.518,-596.546"/>
<polygon fill="black" stroke="black" points="116.187,-598.817 120.493,-589.137 111.09,-594.019 116.187,-598.817"/>
<text text-anchor="middle" x="87" y="-692.8" font-family="Arial" font-size="9.00" fill="#ff0000">Send for Editing</text>
</g>
<!-- editable&#45;&gt;draft -->
<g id="edge2" class="edge"><title>editable&#45;&gt;draft</title>
<path fill="none" stroke="black" d="M137.154,-591.263C138.122,-616.468 137.199,-664.229 120,-700 117.865,-704.441 114.898,-708.66 111.624,-712.505"/>
<polygon fill="black" stroke="black" points="109.012,-710.173 104.644,-719.825 114.078,-715.004 109.012,-710.173"/>
<text text-anchor="middle" x="157.5" y="-692.8" font-family="Arial" font-size="9.00" fill="#ff0000">Back to Drafting</text>
</g>
<!-- available_for_review -->
<g id="node3" class="node"><title>available_for_review</title>
<ellipse fill="none" stroke="black" cx="114" cy="-442" rx="54.697" ry="18"/>
<text text-anchor="middle" x="114" y="-439.8" font-family="Arial" font-size="9.00" fill="#0000ff">3 Ready for Review</text>
</g>
<!-- editable&#45;&gt;available_for_review -->
<g id="edge3" class="edge"><title>editable&#45;&gt;available_for_review</title>
<path fill="none" stroke="black" d="M128.959,-555.113C127.08,-550.013 125.231,-544.347 124,-539 118.759,-516.234 116.26,-489.793 115.072,-470.432"/>
<polygon fill="black" stroke="black" points="118.554,-470.001 114.525,-460.202 111.564,-470.375 118.554,-470.001"/>
<text text-anchor="middle" x="157.5" y="-531.8" font-family="Arial" font-size="9.00" fill="#ff0000">Send for Review</text>
</g>
<!-- review -->
<g id="node4" class="node"><title>review</title>
<ellipse fill="none" stroke="black" cx="187" cy="-296" rx="47.186" ry="18"/>
<text text-anchor="middle" x="187" y="-293.8" font-family="Arial" font-size="9.00" fill="#0000ff">3 Under Review</text>
</g>
<!-- available_for_review&#45;&gt;review -->
<g id="edge4" class="edge"><title>available_for_review&#45;&gt;review</title>
<path fill="none" stroke="black" d="M113.634,-423.826C113.952,-415.777 115.05,-406.182 118,-398 128.462,-368.983 149.265,-340.379 165.306,-321.061"/>
<polygon fill="black" stroke="black" points="168.03,-323.26 171.845,-313.376 162.699,-318.724 168.03,-323.26"/>
<text text-anchor="middle" x="154.5" y="-400.8" font-family="Arial" font-size="9.00" fill="#ff0000">Accept for Review</text>
</g>
<!-- review&#45;&gt;editable -->
<g id="edge6" class="edge"><title>review&#45;&gt;editable</title>
<path fill="none" stroke="black" d="M192.751,-313.97C205.753,-355.56 233.131,-464.589 191,-539 186.662,-546.661 179.758,-552.738 172.286,-557.478"/>
<polygon fill="black" stroke="black" points="170.406,-554.519 163.374,-562.443 173.813,-560.634 170.406,-554.519"/>
<text text-anchor="middle" x="243.5" y="-439.8" font-family="Arial" font-size="9.00" fill="#ff0000">Reject Review</text>
</g>
<!-- available_for_publication -->
<g id="node5" class="node"><title>available_for_publication</title>
<ellipse fill="none" stroke="black" cx="175" cy="-165" rx="64.1719" ry="18"/>
<text text-anchor="middle" x="175" y="-162.8" font-family="Arial" font-size="9.00" fill="#0000ff">4 Ready for Publication</text>
</g>
<!-- review&#45;&gt;available_for_publication -->
<g id="edge5" class="edge"><title>review&#45;&gt;available_for_publication</title>
<path fill="none" stroke="black" d="M181.554,-278.035C180.14,-272.933 178.792,-267.286 178,-262 174.555,-239.01 173.972,-212.589 174.156,-193.292"/>
<polygon fill="black" stroke="black" points="177.659,-193.161 174.331,-183.103 170.66,-193.041 177.659,-193.161"/>
<text text-anchor="middle" x="219.5" y="-254.8" font-family="Arial" font-size="9.00" fill="#ff0000">Send for Publication</text>
</g>
<!-- publish -->
<g id="node6" class="node"><title>publish</title>
<ellipse fill="none" stroke="black" cx="209" cy="-34" rx="38.2105" ry="18"/>
<text text-anchor="middle" x="209" y="-31.8" font-family="Arial" font-size="9.00" fill="#0000ff">5 Published</text>
</g>
<!-- available_for_publication&#45;&gt;publish -->
<g id="edge7" class="edge"><title>available_for_publication&#45;&gt;publish</title>
<path fill="none" stroke="black" d="M179.515,-146.87C185.23,-125.185 195.142,-87.5783 201.881,-62.0104"/>
<polygon fill="black" stroke="black" points="205.302,-62.7629 204.466,-52.2011 198.533,-60.9788 205.302,-62.7629"/>
<text text-anchor="middle" x="202" y="-123.8" font-family="Arial" font-size="9.00" fill="#ff0000">Publish</text>
</g>
<!-- publish&#45;&gt;review -->
<g id="edge8" class="edge"><title>publish&#45;&gt;review</title>
<path fill="none" stroke="black" d="M220.509,-51.3076C246.803,-90.7558 305.68,-193.154 261,-262 255.197,-270.942 246.345,-277.482 236.758,-282.258"/>
<polygon fill="black" stroke="black" points="235.193,-279.122 227.416,-286.317 237.983,-285.542 235.193,-279.122"/>
<text text-anchor="middle" x="292" y="-162.8" font-family="Arial" font-size="9.00" fill="#ff0000">Retract</text>
</g>
</g>
</svg>
